<svg width="41" height="40" viewBox="0 0 41 40" fill="none" xmlns="http://www.w3.org/2000/svg">
<rect x="0.5" width="40" height="40" rx="8" fill="#5144E2" fill-opacity="0.2"/>
<path d="M27.5961 18.107L21.3461 12.2102C21.343 12.2075 21.3402 12.2046 21.3375 12.2016C21.1074 11.9923 20.8075 11.8763 20.4965 11.8763C20.1854 11.8763 19.8856 11.9923 19.6555 12.2016L19.6469 12.2102L13.4039 18.107C13.2766 18.2241 13.1749 18.3664 13.1054 18.5248C13.0359 18.6832 13 18.8544 13 19.0274V26.25C13 26.5815 13.1317 26.8995 13.3661 27.1339C13.6005 27.3683 13.9185 27.5 14.25 27.5H18C18.3315 27.5 18.6495 27.3683 18.8839 27.1339C19.1183 26.8995 19.25 26.5815 19.25 26.25V22.5H21.75V26.25C21.75 26.5815 21.8817 26.8995 22.1161 27.1339C22.3505 27.3683 22.6685 27.5 23 27.5H26.75C27.0815 27.5 27.3995 27.3683 27.6339 27.1339C27.8683 26.8995 28 26.5815 28 26.25V19.0274C28 18.8544 27.9641 18.6832 27.8946 18.5248C27.8251 18.3664 27.7234 18.2241 27.5961 18.107ZM26.75 26.25H23V22.5C23 22.1685 22.8683 21.8506 22.6339 21.6161C22.3995 21.3817 22.0815 21.25 21.75 21.25H19.25C18.9185 21.25 18.6005 21.3817 18.3661 21.6161C18.1317 21.8506 18 22.1685 18 22.5V26.25H14.25V19.0274L14.2586 19.0195L20.5 13.125L26.7422 19.018L26.7508 19.0258L26.75 26.25Z" fill="#5144E2"/>
</svg>
