<svg width="41" height="40" viewBox="0 0 41 40" fill="none" xmlns="http://www.w3.org/2000/svg">
<rect x="0.5" width="40" height="40" rx="8" fill="#ED4883" fill-opacity="0.2"/>
<path d="M16.125 16.875V13.125C16.125 12.9592 16.1909 12.8003 16.3081 12.6831C16.4253 12.5659 16.5842 12.5 16.75 12.5C16.9158 12.5 17.0747 12.5659 17.1919 12.6831C17.3092 12.8003 17.375 12.9592 17.375 13.125V16.875C17.375 17.0408 17.3092 17.1997 17.1919 17.317C17.0747 17.4342 16.9158 17.5 16.75 17.5C16.5842 17.5 16.4253 17.4342 16.3081 17.317C16.1909 17.1997 16.125 17.0408 16.125 16.875ZM27.375 13.125V27.5C27.375 27.6658 27.3092 27.8247 27.1919 27.9419C27.0747 28.0592 26.9158 28.125 26.75 28.125C26.5842 28.125 26.4253 28.0592 26.3081 27.9419C26.1909 27.8247 26.125 27.6658 26.125 27.5V23.75H22.375C22.2092 23.75 22.0503 23.6842 21.9331 23.5669C21.8159 23.4497 21.75 23.2908 21.75 23.125C21.779 21.6279 21.9681 20.1382 22.3141 18.6813C23.0781 15.518 24.5266 13.3977 26.5039 12.5508C26.599 12.5101 26.7026 12.4936 26.8056 12.5028C26.9086 12.512 27.0077 12.5466 27.094 12.6035C27.1803 12.6604 27.2512 12.7378 27.3002 12.8288C27.3493 12.9199 27.375 13.0216 27.375 13.125ZM26.125 14.2109C23.6117 16.1305 23.1195 20.8063 23.0234 22.5H26.125V14.2109ZM19.8664 13.0227C19.8542 12.9406 19.8257 12.8618 19.7827 12.7908C19.7397 12.7199 19.683 12.6582 19.6159 12.6094C19.5488 12.5606 19.4726 12.5257 19.3918 12.5066C19.3111 12.4875 19.2273 12.4847 19.1455 12.4984C19.0637 12.512 18.9853 12.5418 18.9151 12.586C18.8449 12.6303 18.7842 12.688 18.7366 12.756C18.6889 12.8239 18.6553 12.9006 18.6376 12.9817C18.6199 13.0628 18.6186 13.1465 18.6336 13.2281L19.25 16.9242C19.25 17.5873 18.9866 18.2232 18.5178 18.692C18.0489 19.1608 17.413 19.4242 16.75 19.4242C16.087 19.4242 15.4511 19.1608 14.9822 18.692C14.5134 18.2232 14.25 17.5873 14.25 16.9242L14.8656 13.2281C14.8807 13.1465 14.8793 13.0628 14.8616 12.9817C14.8439 12.9006 14.8103 12.8239 14.7626 12.756C14.715 12.688 14.6543 12.6303 14.5841 12.586C14.5139 12.5418 14.4356 12.512 14.3537 12.4984C14.2719 12.4847 14.1881 12.4875 14.1074 12.5066C14.0266 12.5257 13.9505 12.5606 13.8834 12.6094C13.8163 12.6582 13.7596 12.7199 13.7165 12.7908C13.6735 12.8618 13.6451 12.9406 13.6328 13.0227L13.0078 16.7727C13.0025 16.8065 12.9999 16.8407 13 16.875C13.0013 17.7608 13.3156 18.6176 13.8874 19.2941C14.4592 19.9706 15.2518 20.4232 16.125 20.5719V27.5C16.125 27.6658 16.1909 27.8247 16.3081 27.9419C16.4253 28.0592 16.5842 28.125 16.75 28.125C16.9158 28.125 17.0747 28.0592 17.1919 27.9419C17.3092 27.8247 17.375 27.6658 17.375 27.5V20.5719C18.2482 20.4232 19.0408 19.9706 19.6126 19.2941C20.1844 18.6176 20.4988 17.7608 20.5 16.875C20.4999 16.8407 20.497 16.8065 20.4914 16.7727L19.8664 13.0227Z" fill="#ED4883"/>
</svg>
