<svg width="500" height="520" viewBox="0 0 500 520" fill="none" xmlns="http://www.w3.org/2000/svg">
<g clip-path="url(#clip0_375_2380)">
<path d="M449.42 392.36H416.3V392.61H449.42V392.36Z" fill="#EBEBEB"/>
<path d="M330.73 395.07H322.04V395.32H330.73V395.07Z" fill="#EBEBEB"/>
<path d="M415.29 383.07H396.1V383.32H415.29V383.07Z" fill="#EBEBEB"/>
<path d="M95.17 384.75H51.98V385H95.17V384.75Z" fill="#EBEBEB"/>
<path d="M110.4 384.75H104.07V385H110.4V384.75Z" fill="#EBEBEB"/>
<path d="M224.67 388.97H130.99V389.22H224.67V388.97Z" fill="#EBEBEB"/>
<path d="M238.4 336.66H45.3001C43.7874 336.66 42.3366 336.06 41.266 334.991C40.1955 333.923 39.5927 332.473 39.5901 330.96V59.5201C39.5927 58.0074 40.1955 56.5576 41.266 55.489C42.3366 54.4203 43.7874 53.8201 45.3001 53.8201H238.4C239.913 53.8201 241.364 54.4203 242.434 55.489C243.505 56.5576 244.107 58.0074 244.11 59.5201V331C244.097 332.506 243.49 333.945 242.42 335.005C241.351 336.065 239.906 336.66 238.4 336.66ZM45.3001 54.0701C43.8537 54.0701 42.4665 54.6439 41.4428 55.6657C40.4192 56.6875 39.8427 58.0737 39.8401 59.5201V331C39.8427 332.446 40.4192 333.833 41.4428 334.854C42.4665 335.876 43.8537 336.45 45.3001 336.45H238.4C239.846 336.45 241.234 335.876 242.257 334.854C243.281 333.833 243.857 332.446 243.86 331V59.5201C243.857 58.0737 243.281 56.6875 242.257 55.6657C241.234 54.6439 239.846 54.0701 238.4 54.0701H45.3001Z" fill="#EBEBEB"/>
<path d="M454.7 336.66H261.6C260.087 336.66 258.637 336.06 257.566 334.991C256.496 333.923 255.893 332.473 255.89 330.96V59.5201C255.893 58.0074 256.496 56.5576 257.566 55.489C258.637 54.4203 260.087 53.8201 261.6 53.8201H454.7C456.213 53.8201 457.664 54.4203 458.734 55.489C459.805 56.5576 460.407 58.0074 460.41 59.5201V331C460.397 332.506 459.79 333.945 458.72 335.005C457.651 336.065 456.206 336.66 454.7 336.66ZM261.6 54.0701C260.154 54.0701 258.767 54.6439 257.743 55.6657C256.719 56.6875 256.143 58.0737 256.14 59.5201V331C256.143 332.446 256.719 333.833 257.743 334.854C258.767 335.876 260.154 336.45 261.6 336.45H454.7C456.146 336.45 457.534 335.876 458.557 334.854C459.581 333.833 460.157 332.446 460.16 331V59.5201C460.157 58.0737 459.581 56.6875 458.557 55.6657C457.534 54.6439 456.146 54.0701 454.7 54.0701H261.6Z" fill="#EBEBEB"/>
<path d="M499.52 381.26H-0.47998V381.51H499.52V381.26Z" fill="#EBEBEB"/>
<path d="M288.56 233.97H224.34V355.01H288.56V233.97Z" fill="#EBEBEB"/>
<path d="M236.67 218.45V233.97H241.74H271.16H276.23V218.45H236.67Z" fill="#EBEBEB"/>
<path d="M236.67 238.08H228.45V246.3H236.67V238.08Z" fill="#FAFAFA"/>
<path d="M252.6 238.08H244.38V246.3H252.6V238.08Z" fill="#FAFAFA"/>
<path d="M268.52 238.08H260.3V246.3H268.52V238.08Z" fill="#FAFAFA"/>
<path d="M284.45 238.08H276.23V246.3H284.45V238.08Z" fill="#FAFAFA"/>
<path d="M236.67 253.02H228.45V261.24H236.67V253.02Z" fill="#FAFAFA"/>
<path d="M252.6 253.02H244.38V261.24H252.6V253.02Z" fill="#FAFAFA"/>
<path d="M268.52 253.02H260.3V261.24H268.52V253.02Z" fill="#FAFAFA"/>
<path d="M284.45 253.02H276.23V261.24H284.45V253.02Z" fill="#FAFAFA"/>
<path d="M236.67 267.95H228.45V276.17H236.67V267.95Z" fill="#FAFAFA"/>
<path d="M252.6 267.95H244.38V276.17H252.6V267.95Z" fill="#FAFAFA"/>
<path d="M268.52 267.95H260.3V276.17H268.52V267.95Z" fill="#FAFAFA"/>
<path d="M252.6 225.16H244.38V233.38H252.6V225.16Z" fill="#FAFAFA"/>
<path d="M268.52 225.16H260.3V233.38H268.52V225.16Z" fill="#FAFAFA"/>
<path d="M284.45 267.95H276.23V276.17H284.45V267.95Z" fill="#FAFAFA"/>
<path d="M236.67 282.89H228.45V291.11H236.67V282.89Z" fill="#FAFAFA"/>
<path d="M252.6 282.89H244.38V291.11H252.6V282.89Z" fill="#FAFAFA"/>
<path d="M268.52 282.89H260.3V291.11H268.52V282.89Z" fill="#FAFAFA"/>
<path d="M284.45 282.89H276.23V291.11H284.45V282.89Z" fill="#FAFAFA"/>
<path d="M236.67 297.83H228.45V306.05H236.67V297.83Z" fill="#FAFAFA"/>
<path d="M252.6 297.83H244.38V306.05H252.6V297.83Z" fill="#FAFAFA"/>
<path d="M268.52 297.83H260.3V306.05H268.52V297.83Z" fill="#FAFAFA"/>
<path d="M284.45 297.83H276.23V306.05H284.45V297.83Z" fill="#FAFAFA"/>
<path d="M236.67 312.77H228.45V320.99H236.67V312.77Z" fill="#FAFAFA"/>
<path d="M252.6 312.77H244.38V320.99H252.6V312.77Z" fill="#FAFAFA"/>
<path d="M268.52 312.77H260.3V320.99H268.52V312.77Z" fill="#FAFAFA"/>
<path d="M284.45 312.77H276.23V320.99H284.45V312.77Z" fill="#FAFAFA"/>
<path d="M236.67 327.71H228.45V335.93H236.67V327.71Z" fill="#FAFAFA"/>
<path d="M252.6 327.71H244.38V335.93H252.6V327.71Z" fill="#FAFAFA"/>
<path d="M268.52 327.71H260.3V335.93H268.52V327.71Z" fill="#FAFAFA"/>
<path d="M284.45 327.71H276.23V335.93H284.45V327.71Z" fill="#FAFAFA"/>
<path d="M223.01 234.05H289.88V232.37H223.01V234.05Z" fill="#F5F5F5"/>
<path d="M226.13 213.01H149.79V355.01H226.13V213.01Z" fill="#E6E6E6"/>
<path d="M164.45 194.56V213.01H170.47H205.45H211.47V194.56H164.45Z" fill="#E6E6E6"/>
<path d="M148.21 213.11H227.7V211.12H148.21V213.11Z" fill="#F5F5F5"/>
<path d="M162.46 194.56H213.47V192.57H162.46V194.56Z" fill="#F5F5F5"/>
<path d="M210.21 213.01H133.87V355.01H210.21V213.01Z" fill="#F0F0F0"/>
<path d="M148.53 194.56V213.01H154.55H189.53H195.55V194.56H148.53Z" fill="#F0F0F0"/>
<path d="M148.53 217.89H138.76V227.66H148.53V217.89Z" fill="white"/>
<path d="M167.46 217.89H157.69V227.66H167.46V217.89Z" fill="white"/>
<path d="M186.39 217.89H176.62V227.66H186.39V217.89Z" fill="white"/>
<path d="M205.32 217.89H195.55V227.66H205.32V217.89Z" fill="white"/>
<path d="M148.53 235.65H138.76V245.42H148.53V235.65Z" fill="white"/>
<path d="M167.46 235.65H157.69V245.42H167.46V235.65Z" fill="white"/>
<path d="M186.39 235.65H176.62V245.42H186.39V235.65Z" fill="white"/>
<path d="M205.32 235.65H195.55V245.42H205.32V235.65Z" fill="white"/>
<path d="M148.53 253.41H138.76V263.18H148.53V253.41Z" fill="white"/>
<path d="M167.46 253.41H157.69V263.18H167.46V253.41Z" fill="white"/>
<path d="M186.39 253.41H176.62V263.18H186.39V253.41Z" fill="white"/>
<path d="M167.46 202.54H157.69V212.31H167.46V202.54Z" fill="white"/>
<path d="M186.39 202.54H176.62V212.31H186.39V202.54Z" fill="white"/>
<path d="M205.32 253.41H195.55V263.18H205.32V253.41Z" fill="white"/>
<path d="M148.53 271.17H138.76V280.94H148.53V271.17Z" fill="white"/>
<path d="M167.46 271.17H157.69V280.94H167.46V271.17Z" fill="white"/>
<path d="M186.39 271.17H176.62V280.94H186.39V271.17Z" fill="white"/>
<path d="M205.32 271.17H195.55V280.94H205.32V271.17Z" fill="white"/>
<path d="M148.53 288.93H138.76V298.7H148.53V288.93Z" fill="white"/>
<path d="M167.46 288.93H157.69V298.7H167.46V288.93Z" fill="white"/>
<path d="M186.39 288.93H176.62V298.7H186.39V288.93Z" fill="white"/>
<path d="M205.32 288.93H195.55V298.7H205.32V288.93Z" fill="white"/>
<path d="M148.53 306.68H138.76V316.45H148.53V306.68Z" fill="white"/>
<path d="M167.46 306.68H157.69V316.45H167.46V306.68Z" fill="white"/>
<path d="M186.39 306.68H176.62V316.45H186.39V306.68Z" fill="white"/>
<path d="M205.32 306.68H195.55V316.45H205.32V306.68Z" fill="white"/>
<path d="M148.53 324.44H138.76V334.21H148.53V324.44Z" fill="white"/>
<path d="M167.46 324.44H157.69V334.21H167.46V324.44Z" fill="white"/>
<path d="M186.39 324.44H176.62V334.21H186.39V324.44Z" fill="white"/>
<path d="M205.32 324.44H195.55V334.21H205.32V324.44Z" fill="white"/>
<path d="M132.3 213.11H211.79V211.12H132.3V213.11Z" fill="#F5F5F5"/>
<path d="M146.54 194.56H197.55V192.57H146.54V194.56Z" fill="#F5F5F5"/>
<path d="M95.45 277.33H52.72V354.44H120.91V277.33V247.56L95.45 277.33Z" fill="#F5F5F5"/>
<path d="M133.64 247.56H120.91V354.44H133.64V247.56Z" fill="#E6E6E6"/>
<path d="M66.0499 290.93H55.8999V301.08H66.0499V290.93Z" fill="#E0E0E0"/>
<path opacity="0.3" d="M66.05 290.93H57.03V301.08H66.05V290.93Z" fill="white"/>
<path d="M66.0499 308.01H55.8999V318.16H66.0499V308.01Z" fill="#E0E0E0"/>
<path opacity="0.3" d="M66.05 308.01H57.03V318.16H66.05V308.01Z" fill="white"/>
<path d="M66.0499 325.08H55.8999V335.23H66.0499V325.08Z" fill="#E0E0E0"/>
<path opacity="0.3" d="M66.05 325.08H57.03V335.23H66.05V325.08Z" fill="white"/>
<path opacity="0.2" d="M67.18 325.08H57.03V335.23H67.18V325.08Z" fill="white"/>
<path d="M83.16 290.93H73.01V301.08H83.16V290.93Z" fill="#E0E0E0"/>
<path opacity="0.3" d="M83.1601 290.93H74.1401V301.08H83.1601V290.93Z" fill="white"/>
<path d="M83.16 308.01H73.01V318.16H83.16V308.01Z" fill="#E0E0E0"/>
<path opacity="0.3" d="M83.1601 308.01H74.1401V318.16H83.1601V308.01Z" fill="white"/>
<path d="M83.16 325.08H73.01V335.23H83.16V325.08Z" fill="#E0E0E0"/>
<path opacity="0.3" d="M83.1601 325.08H74.1401V335.23H83.1601V325.08Z" fill="white"/>
<path opacity="0.2" d="M84.2901 325.08H74.1401V335.23H84.2901V325.08Z" fill="white"/>
<path d="M100.27 290.93H90.1201V301.08H100.27V290.93Z" fill="#E0E0E0"/>
<path opacity="0.3" d="M100.27 290.93H91.25V301.08H100.27V290.93Z" fill="white"/>
<path d="M100.27 308.01H90.1201V318.16H100.27V308.01Z" fill="#E0E0E0"/>
<path opacity="0.3" d="M100.27 308.01H91.25V318.16H100.27V308.01Z" fill="white"/>
<path d="M100.27 325.08H90.1201V335.23H100.27V325.08Z" fill="#E0E0E0"/>
<path opacity="0.3" d="M100.27 325.08H91.25V335.23H100.27V325.08Z" fill="white"/>
<path opacity="0.2" d="M101.4 325.08H91.25V335.23H101.4V325.08Z" fill="white"/>
<path d="M117.37 290.93H107.22V301.08H117.37V290.93Z" fill="#E0E0E0"/>
<path opacity="0.3" d="M117.37 290.93H108.35V301.08H117.37V290.93Z" fill="white"/>
<path d="M117.37 308.01H107.22V318.16H117.37V308.01Z" fill="#E0E0E0"/>
<path opacity="0.3" d="M117.37 308.01H108.35V318.16H117.37V308.01Z" fill="white"/>
<path d="M117.37 325.08H107.22V335.23H117.37V325.08Z" fill="#E0E0E0"/>
<path opacity="0.3" d="M117.37 325.08H108.35V335.23H117.37V325.08Z" fill="white"/>
<path opacity="0.2" d="M118.51 325.08H108.36V335.23H118.51V325.08Z" fill="white"/>
<path d="M343.4 110.46L370.03 110.16C370.975 110.148 371.903 110.412 372.7 110.92C381.12 118.92 390.82 114.3 395.13 111.5C396.77 110.426 398.68 109.837 400.64 109.8L430.31 109.46C441.45 109.33 443.96 93.71 433.4 90.18L433 90C444.52 80.18 418.76 60 391.36 88.65C393.42 79.19 368.81 82.88 361.42 95.84C358.64 87.46 335.31 102.42 343.4 110.46Z" fill="#F0F0F0"/>
<path d="M191.22 149.83H235.44C241.1 149.83 242.44 141.9 237.12 140.04L236.91 139.97C242.83 135.04 229.85 124.64 215.74 139.04C216.84 134.24 204.3 135.97 200.47 142.52C199.11 138.22 187.15 145.69 191.22 149.83Z" fill="#F0F0F0"/>
<path d="M67.4301 111.85H142.55C152.17 111.85 154.49 98.38 145.4 95.21L145.05 95.1C155.11 86.72 133.05 69.1 109.05 93.51C110.92 85.36 89.6201 88.31 83.1101 99.43C80.8301 92.13 60.5201 104.81 67.4301 111.85Z" fill="#F0F0F0"/>
<path d="M274.31 264.42H210.62V362.29H274.31V264.42Z" fill="#2B3D63"/>
<path opacity="0.6" d="M263.56 264.41H210.62V362.29H263.56V264.41Z" fill="white"/>
<path opacity="0.3" d="M274.32 264.41H263.56V362.29H274.32V264.41Z" fill="white"/>
<path d="M226.72 269.39H215.17V280.94H226.72V269.39Z" fill="#2B3D63"/>
<path d="M242.86 269.39H231.31V280.94H242.86V269.39Z" fill="#2B3D63"/>
<path d="M259.01 269.39H247.46V280.94H259.01V269.39Z" fill="#2B3D63"/>
<path d="M226.72 284.44H215.17V295.99H226.72V284.44Z" fill="#2B3D63"/>
<path d="M242.86 284.44H231.31V295.99H242.86V284.44Z" fill="#2B3D63"/>
<path d="M259.01 284.44H247.46V295.99H259.01V284.44Z" fill="#2B3D63"/>
<path d="M226.72 299.49H215.17V311.04H226.72V299.49Z" fill="#2B3D63"/>
<path d="M242.86 299.49H231.31V311.04H242.86V299.49Z" fill="#2B3D63"/>
<path d="M259.01 299.49H247.46V311.04H259.01V299.49Z" fill="#2B3D63"/>
<path d="M226.72 314.54H215.17V326.09H226.72V314.54Z" fill="#2B3D63"/>
<path d="M242.86 314.54H231.31V326.09H242.86V314.54Z" fill="#2B3D63"/>
<path d="M259.01 314.54H247.46V326.09H259.01V314.54Z" fill="#2B3D63"/>
<path d="M226.72 329.59H215.17V341.14H226.72V329.59Z" fill="#2B3D63"/>
<path d="M242.86 329.59H231.31V341.14H242.86V329.59Z" fill="#2B3D63"/>
<path d="M259.01 329.59H247.46V341.14H259.01V329.59Z" fill="#2B3D63"/>
<path d="M226.72 348.64H215.17V362.29H226.72V348.64Z" fill="#2B3D63"/>
<path d="M242.86 344.64H231.31V362.29H242.86V344.64Z" fill="#2B3D63"/>
<path d="M259.01 348.64H247.46V362.29H259.01V348.64Z" fill="#2B3D63"/>
<path opacity="0.4" d="M226.72 269.39H216.12V280.94H226.72V269.39Z" fill="white"/>
<path opacity="0.4" d="M242.87 269.39H232.27V280.94H242.87V269.39Z" fill="white"/>
<path opacity="0.4" d="M259.02 269.39H248.42V280.94H259.02V269.39Z" fill="white"/>
<path opacity="0.4" d="M226.72 284.44H216.12V295.99H226.72V284.44Z" fill="white"/>
<path opacity="0.4" d="M242.87 284.44H232.27V295.99H242.87V284.44Z" fill="white"/>
<path opacity="0.4" d="M259.02 284.44H248.42V295.99H259.02V284.44Z" fill="white"/>
<path opacity="0.4" d="M226.72 299.49H216.12V311.04H226.72V299.49Z" fill="white"/>
<path opacity="0.4" d="M242.87 299.49H232.27V311.04H242.87V299.49Z" fill="white"/>
<path opacity="0.4" d="M259.02 299.49H248.42V311.04H259.02V299.49Z" fill="white"/>
<path opacity="0.4" d="M226.72 314.54H216.12V326.09H226.72V314.54Z" fill="white"/>
<path opacity="0.4" d="M242.87 314.54H232.27V326.09H242.87V314.54Z" fill="white"/>
<path opacity="0.4" d="M259.02 314.54H248.42V326.09H259.02V314.54Z" fill="white"/>
<path opacity="0.4" d="M226.72 329.59H216.12V341.14H226.72V329.59Z" fill="white"/>
<path opacity="0.4" d="M242.87 329.59H232.27V341.14H242.87V329.59Z" fill="white"/>
<path opacity="0.4" d="M259.02 329.59H248.42V341.14H259.02V329.59Z" fill="white"/>
<path opacity="0.4" d="M226.72 348.64H216.12V362.29H226.72V348.64Z" fill="white"/>
<path opacity="0.4" d="M242.87 344.64H232.27V362.29H242.87V344.64Z" fill="white"/>
<path opacity="0.4" d="M259.02 348.64H248.42V362.29H259.02V348.64Z" fill="white"/>
<path d="M206.75 260.18H285.23L282.9 265.15H209.09L206.75 260.18Z" fill="#2B3D63"/>
<path opacity="0.2" d="M264.72 260.18H285.23L282.9 265.15H263.6L264.72 260.18Z" fill="black"/>
<path d="M440.82 205.87H376.54V362.29H440.82V205.87Z" fill="#2B3D63"/>
<path opacity="0.4" d="M425.44 205.87H376.54V362.29H425.44V205.87Z" fill="white"/>
<path d="M443.83 201.24H373.52V206.23H443.83V201.24Z" fill="#2B3D63"/>
<path opacity="0.2" d="M443.83 201.24H425.45V206.23H443.83V201.24Z" fill="black"/>
<path opacity="0.3" d="M440.83 206.23H425.45V362.29H440.83V206.23Z" fill="white"/>
<path d="M391.41 212.11H383.1V224.7H391.41V212.11Z" fill="#2B3D63"/>
<path opacity="0.2" d="M391.41 212.94H383.1V224.69H391.41V212.94Z" fill="white"/>
<path d="M384.29 212.11H383.1V224.7H384.29V212.11Z" fill="#2B3D63"/>
<path d="M404.5 212.11H396.19V224.7H404.5V212.11Z" fill="#2B3D63"/>
<path opacity="0.2" d="M404.5 212.94H396.19V224.69H404.5V212.94Z" fill="white"/>
<path d="M397.38 212.11H396.19V224.7H397.38V212.11Z" fill="#2B3D63"/>
<path d="M417.59 212.11H409.28V224.7H417.59V212.11Z" fill="#2B3D63"/>
<path opacity="0.2" d="M417.59 212.94H409.28V224.69H417.59V212.94Z" fill="white"/>
<path d="M410.47 212.11H409.28V224.7H410.47V212.11Z" fill="#2B3D63"/>
<path d="M391.41 231.07H383.1V243.66H391.41V231.07Z" fill="#2B3D63"/>
<path opacity="0.2" d="M391.41 231.9H383.1V243.65H391.41V231.9Z" fill="white"/>
<path d="M384.29 231.07H383.1V243.66H384.29V231.07Z" fill="#2B3D63"/>
<path d="M404.5 231.07H396.19V243.66H404.5V231.07Z" fill="#2B3D63"/>
<path opacity="0.2" d="M404.5 231.9H396.19V243.65H404.5V231.9Z" fill="white"/>
<path d="M397.38 231.07H396.19V243.66H397.38V231.07Z" fill="#2B3D63"/>
<path d="M417.59 231.07H409.28V243.66H417.59V231.07Z" fill="#2B3D63"/>
<path opacity="0.2" d="M417.59 231.9H409.28V243.65H417.59V231.9Z" fill="white"/>
<path d="M410.47 231.07H409.28V243.66H410.47V231.07Z" fill="#2B3D63"/>
<path d="M391.41 250.02H383.1V262.61H391.41V250.02Z" fill="#2B3D63"/>
<path opacity="0.2" d="M391.41 250.86H383.1V262.61H391.41V250.86Z" fill="white"/>
<path d="M384.29 250.02H383.1V262.61H384.29V250.02Z" fill="#2B3D63"/>
<path d="M404.5 250.02H396.19V262.61H404.5V250.02Z" fill="#2B3D63"/>
<path opacity="0.2" d="M404.5 250.86H396.19V262.61H404.5V250.86Z" fill="white"/>
<path d="M397.38 250.02H396.19V262.61H397.38V250.02Z" fill="#2B3D63"/>
<path d="M417.59 250.02H409.28V262.61H417.59V250.02Z" fill="#2B3D63"/>
<path opacity="0.2" d="M417.59 250.86H409.28V262.61H417.59V250.86Z" fill="white"/>
<path d="M410.47 250.02H409.28V262.61H410.47V250.02Z" fill="#2B3D63"/>
<path d="M391.41 268.98H383.1V281.57H391.41V268.98Z" fill="#2B3D63"/>
<path opacity="0.2" d="M391.41 269.82H383.1V281.57H391.41V269.82Z" fill="white"/>
<path d="M384.29 268.98H383.1V281.57H384.29V268.98Z" fill="#2B3D63"/>
<path d="M404.5 268.98H396.19V281.57H404.5V268.98Z" fill="#2B3D63"/>
<path opacity="0.2" d="M404.5 269.82H396.19V281.57H404.5V269.82Z" fill="white"/>
<path d="M397.38 268.98H396.19V281.57H397.38V268.98Z" fill="#2B3D63"/>
<path d="M417.59 268.98H409.28V281.57H417.59V268.98Z" fill="#2B3D63"/>
<path opacity="0.2" d="M417.59 269.82H409.28V281.57H417.59V269.82Z" fill="white"/>
<path d="M410.47 268.98H409.28V281.57H410.47V268.98Z" fill="#2B3D63"/>
<path d="M391.41 287.94H383.1V300.53H391.41V287.94Z" fill="#2B3D63"/>
<path opacity="0.2" d="M391.41 288.77H383.1V300.52H391.41V288.77Z" fill="white"/>
<path d="M384.29 287.94H383.1V300.53H384.29V287.94Z" fill="#2B3D63"/>
<path d="M404.5 287.94H396.19V300.53H404.5V287.94Z" fill="#2B3D63"/>
<path opacity="0.2" d="M404.5 288.77H396.19V300.52H404.5V288.77Z" fill="white"/>
<path d="M397.38 287.94H396.19V300.53H397.38V287.94Z" fill="#2B3D63"/>
<path d="M417.59 287.94H409.28V300.53H417.59V287.94Z" fill="#2B3D63"/>
<path opacity="0.2" d="M417.59 288.77H409.28V300.52H417.59V288.77Z" fill="white"/>
<path d="M410.47 287.94H409.28V300.53H410.47V287.94Z" fill="#2B3D63"/>
<path d="M391.41 306.89H383.1V319.48H391.41V306.89Z" fill="#2B3D63"/>
<path opacity="0.2" d="M391.41 307.73H383.1V319.48H391.41V307.73Z" fill="white"/>
<path d="M384.29 306.89H383.1V319.48H384.29V306.89Z" fill="#2B3D63"/>
<path d="M404.5 306.89H396.19V319.48H404.5V306.89Z" fill="#2B3D63"/>
<path opacity="0.2" d="M404.5 307.73H396.19V319.48H404.5V307.73Z" fill="white"/>
<path d="M397.38 306.89H396.19V319.48H397.38V306.89Z" fill="#2B3D63"/>
<path d="M417.59 306.89H409.28V319.48H417.59V306.89Z" fill="#2B3D63"/>
<path opacity="0.2" d="M417.59 307.73H409.28V319.48H417.59V307.73Z" fill="white"/>
<path d="M410.47 306.89H409.28V319.48H410.47V306.89Z" fill="#2B3D63"/>
<path d="M391.41 325.85H383.1V338.44H391.41V325.85Z" fill="#2B3D63"/>
<path opacity="0.2" d="M391.41 326.69H383.1V338.44H391.41V326.69Z" fill="white"/>
<path d="M384.29 325.85H383.1V338.44H384.29V325.85Z" fill="#2B3D63"/>
<path d="M404.5 325.85H396.19V338.44H404.5V325.85Z" fill="#2B3D63"/>
<path opacity="0.2" d="M404.5 326.69H396.19V338.44H404.5V326.69Z" fill="white"/>
<path d="M397.38 325.85H396.19V338.44H397.38V325.85Z" fill="#2B3D63"/>
<path d="M417.59 325.85H409.28V338.44H417.59V325.85Z" fill="#2B3D63"/>
<path opacity="0.2" d="M417.59 326.69H409.28V338.44H417.59V326.69Z" fill="white"/>
<path d="M410.47 325.85H409.28V338.44H410.47V325.85Z" fill="#2B3D63"/>
<path d="M391.41 344.81H383.1V357.4H391.41V344.81Z" fill="#2B3D63"/>
<path opacity="0.2" d="M391.41 345.64H383.1V357.39H391.41V345.64Z" fill="white"/>
<path d="M384.29 344.81H383.1V357.4H384.29V344.81Z" fill="#2B3D63"/>
<path d="M404.5 344.81H396.19V357.4H404.5V344.81Z" fill="#2B3D63"/>
<path opacity="0.2" d="M404.5 345.64H396.19V357.39H404.5V345.64Z" fill="white"/>
<path d="M397.38 344.81H396.19V357.4H397.38V344.81Z" fill="#2B3D63"/>
<path d="M417.59 344.81H409.28V357.4H417.59V344.81Z" fill="#2B3D63"/>
<path opacity="0.2" d="M417.59 345.64H409.28V357.39H417.59V345.64Z" fill="white"/>
<path d="M410.47 344.81H409.28V357.4H410.47V344.81Z" fill="#2B3D63"/>
<path d="M305.32 117.17H303.89V147.97H305.32V117.17Z" fill="#263238"/>
<path d="M336.4 117.17H334.97V147.97H336.4V117.17Z" fill="#263238"/>
<path d="M363.29 131.2H314.98V156.73H363.29V131.2Z" fill="#2B3D63"/>
<path opacity="0.7" d="M363.29 131.2H314.98V156.73H363.29V131.2Z" fill="white"/>
<path d="M335.35 131.2H287.04V156.73H335.35V131.2Z" fill="#2B3D63"/>
<path opacity="0.4" d="M335.35 131.2H287.04V156.73H335.35V131.2Z" fill="white"/>
<path opacity="0.5" d="M282.45 170.42H280.03V180.42H282.45V170.42Z" fill="white"/>
<path opacity="0.5" d="M282.45 196.24H280.03V206.24H282.45V196.24Z" fill="white"/>
<path opacity="0.5" d="M282.45 213.72H280.03V223.72H282.45V213.72Z" fill="white"/>
<path opacity="0.5" d="M282.45 231.21H280.03V241.21H282.45V231.21Z" fill="white"/>
<path opacity="0.5" d="M282.45 248.69H280.03V258.69H282.45V248.69Z" fill="white"/>
<path opacity="0.5" d="M282.45 266.17H280.03V276.17H282.45V266.17Z" fill="white"/>
<path opacity="0.5" d="M282.45 285.44H280.03V295.44H282.45V285.44Z" fill="white"/>
<path opacity="0.5" d="M282.45 304.71H280.03V314.71H282.45V304.71Z" fill="white"/>
<path opacity="0.5" d="M282.45 323.97H280.03V333.97H282.45V323.97Z" fill="white"/>
<path opacity="0.5" d="M282.45 343.24H280.03V353.24H282.45V343.24Z" fill="white"/>
<path d="M376.89 157.1H301.4V362.29H376.89V157.1Z" fill="#2B3D63"/>
<path d="M348.93 157.1H273.44V362.29H348.93V157.1Z" fill="#2B3D63"/>
<path opacity="0.3" d="M376.88 159.92H348.94V362.3H376.88V159.92Z" fill="white"/>
<path opacity="0.5" d="M348.93 157.1H273.44V362.29H348.93V157.1Z" fill="white"/>
<path d="M341.78 166.07H332.52V357.39H341.78V166.07Z" fill="#2B3D63"/>
<path d="M323.94 166.07H314.68V357.39H323.94V166.07Z" fill="#2B3D63"/>
<path d="M306.1 166.07H296.84V357.39H306.1V166.07Z" fill="#2B3D63"/>
<path d="M288.25 166.07H278.99V357.39H288.25V166.07Z" fill="#2B3D63"/>
<path opacity="0.2" d="M341.78 168.49H332.52V357.39H341.78V168.49Z" fill="white"/>
<path opacity="0.2" d="M323.94 168.49H314.68V357.39H323.94V168.49Z" fill="white"/>
<path opacity="0.2" d="M306.1 168.49H296.84V357.39H306.1V168.49Z" fill="white"/>
<path opacity="0.2" d="M288.25 168.49H278.99V357.39H288.25V168.49Z" fill="white"/>
<path d="M373.66 166.07H369.78V357.39H373.66V166.07Z" fill="#2B3D63"/>
<path d="M366.18 166.07H362.3V357.39H366.18V166.07Z" fill="#2B3D63"/>
<path d="M358.69 166.07H354.81V357.39H358.69V166.07Z" fill="#2B3D63"/>
<g opacity="0.3">
<path opacity="0.4" d="M373.66 168.49H369.78V357.39H373.66V168.49Z" fill="white"/>
<path opacity="0.4" d="M366.18 168.49H362.3V357.39H366.18V168.49Z" fill="white"/>
<path opacity="0.4" d="M358.69 168.49H354.81V357.39H358.69V168.49Z" fill="white"/>
</g>
<path d="M375.27 151.27H348.94V155.12H375.27V151.27Z" fill="#2B3D63"/>
<path d="M375.27 150.33H273.44V155.12H375.27V150.33Z" fill="#F0F0F0"/>
<path d="M378.84 155.13H271.31V159.92H378.84V155.13Z" fill="#2B3D63"/>
<path d="M378.84 146.48H271.31V151.27H378.84V146.48Z" fill="#2B3D63"/>
<path opacity="0.1" d="M378.84 155.13H271.31V159.92H378.84V155.13Z" fill="black"/>
<path opacity="0.1" d="M378.84 146.48H271.31V151.27H378.84V146.48Z" fill="black"/>
<path opacity="0.2" d="M378.84 155.13H348.94V159.92H378.84V155.13Z" fill="black"/>
<path opacity="0.2" d="M378.84 146.48H348.94V151.27H378.84V146.48Z" fill="black"/>
<path opacity="0.3" d="M316.99 131.2H305.45V142.74H316.99V131.2Z" fill="white"/>
<path d="M189 223.72C179.2 212.16 166.92 208.21 157.91 212.52C156.614 213.14 155.15 213.319 153.743 213.028C152.336 212.737 151.064 211.993 150.12 210.91C139.22 199.1 121.55 197.7 114.22 208.84C113.39 210.101 112.687 211.441 112.12 212.84C111.22 215.092 109.723 217.056 107.79 218.52C106.477 219.495 105.349 220.697 104.46 222.07C102.081 226.014 100.977 230.596 101.3 235.19C101.355 235.876 101.213 236.563 100.89 237.171C100.568 237.778 100.078 238.281 99.4798 238.62C97.439 239.689 95.7148 241.275 94.4798 243.22C88.5398 252.22 91.1598 268.32 100.33 279.13C108.5 288.76 119.11 290.97 125.52 284.95C125.781 284.7 126.128 284.56 126.49 284.56C126.851 284.56 127.199 284.7 127.46 284.95C132.08 289.1 137.46 289.13 140.23 284.63C140.336 284.434 140.487 284.265 140.671 284.139C140.854 284.012 141.065 283.93 141.286 283.9C141.507 283.869 141.732 283.892 141.943 283.965C142.154 284.038 142.345 284.16 142.5 284.32C147.26 289.09 153.01 289.32 155.94 284.63C156.468 283.757 156.872 282.815 157.14 281.83C157.181 281.621 157.266 281.423 157.391 281.25C157.515 281.077 157.675 280.933 157.86 280.828C158.045 280.722 158.251 280.658 158.463 280.64C158.675 280.621 158.889 280.648 159.09 280.72C162.2 281.97 165.25 281.43 167.33 278.97C167.536 278.715 167.828 278.542 168.152 278.485C168.475 278.428 168.808 278.49 169.09 278.66C179.76 285.04 191.01 283.81 197.27 274.3C205.64 261.57 202 238.94 189 223.72Z" fill="#2B3D63"/>
<path opacity="0.6" d="M189 223.72C179.2 212.16 166.92 208.21 157.91 212.52C156.614 213.14 155.15 213.319 153.743 213.028C152.336 212.737 151.064 211.993 150.12 210.91C139.22 199.1 121.55 197.7 114.22 208.84C113.39 210.101 112.687 211.441 112.12 212.84C111.22 215.092 109.723 217.056 107.79 218.52C106.477 219.495 105.349 220.697 104.46 222.07C102.081 226.014 100.977 230.596 101.3 235.19C101.355 235.876 101.213 236.563 100.89 237.171C100.568 237.778 100.078 238.281 99.4798 238.62C97.439 239.689 95.7148 241.275 94.4798 243.22C88.5398 252.22 91.1598 268.32 100.33 279.13C108.5 288.76 119.11 290.97 125.52 284.95C125.781 284.7 126.128 284.56 126.49 284.56C126.851 284.56 127.199 284.7 127.46 284.95C132.08 289.1 137.46 289.13 140.23 284.63C140.336 284.434 140.487 284.265 140.671 284.139C140.854 284.012 141.065 283.93 141.286 283.9C141.507 283.869 141.732 283.892 141.943 283.965C142.154 284.038 142.345 284.16 142.5 284.32C147.26 289.09 153.01 289.32 155.94 284.63C156.468 283.757 156.872 282.815 157.14 281.83C157.181 281.621 157.266 281.423 157.391 281.25C157.515 281.077 157.675 280.933 157.86 280.828C158.045 280.722 158.251 280.658 158.463 280.64C158.675 280.621 158.889 280.648 159.09 280.72C162.2 281.97 165.25 281.43 167.33 278.97C167.536 278.715 167.828 278.542 168.152 278.485C168.475 278.428 168.808 278.49 169.09 278.66C179.76 285.04 191.01 283.81 197.27 274.3C205.64 261.57 202 238.94 189 223.72Z" fill="white"/>
<path d="M123.77 290.22L133.06 299.31C132.32 312.14 131.71 341.69 131.71 341.69L128.41 362.35L157.52 362.63C157.52 362.63 156.2 345.18 156.2 344.24C156.2 343.3 150.57 309.87 150.57 309.87L148.57 291.15L163.57 286.32L166.31 277.98L177.31 271.4L182.7 262.67L180.62 262.14L174.62 270.2L167.67 271.79L170.67 264.37H167.36L159.09 281.57L148.43 283.87L149.82 259.72C141.3 263.92 138.57 256.92 138.57 256.92C138.57 256.92 135.05 289.43 133.81 293.13L128.32 290.22L122.32 280.3H119.8L123.77 290.22Z" fill="#2B3D63"/>
<path d="M81.17 330.56H79.7V349.46H81.17V330.56Z" fill="#2B3D63"/>
<path opacity="0.2" d="M81.17 330.56H79.7V349.46H81.17V330.56Z" fill="black"/>
<path d="M111.64 330.56H110.17V349.46H111.64V330.56Z" fill="#2B3D63"/>
<path opacity="0.2" d="M111.64 330.56H110.17V349.46H111.64V330.56Z" fill="black"/>
<path d="M113.31 347.62H78.0898V349.92H113.31V347.62Z" fill="#2B3D63"/>
<path opacity="0.2" d="M113.31 347.62H78.0898V349.92H113.31V347.62Z" fill="white"/>
<path d="M80.43 349.85H78.96V362.64H80.43V349.85Z" fill="#2B3D63"/>
<path opacity="0.2" d="M80.43 349.85H78.96V362.64H80.43V349.85Z" fill="black"/>
<path d="M112.58 349.85H111.11V362.64H112.58V349.85Z" fill="#2B3D63"/>
<path opacity="0.2" d="M112.58 349.85H111.11V362.64H112.58V349.85Z" fill="black"/>
<path d="M113.31 331.41H78.0898V342.53H113.31V331.41Z" fill="#2B3D63"/>
<path opacity="0.2" d="M113.31 331.41H78.0898V342.53H113.31V331.41Z" fill="white"/>
<path d="M113.24 349.46H78.1399V353.04H113.24V349.46Z" fill="#2B3D63"/>
<path opacity="0.1" d="M113.24 349.46H78.1399V353.04H113.24V349.46Z" fill="black"/>
<path d="M78.1399 344.37H76.6699V362.62H78.1399V344.37Z" fill="#2B3D63"/>
<path d="M78.7099 342.54H76.1499V345.1H78.7099V342.54Z" fill="#2B3D63"/>
<path opacity="0.2" d="M78.7099 342.54H76.1499V345.1H78.7099V342.54Z" fill="white"/>
<path d="M80.7 342.54H78.7V345.1H80.7V342.54Z" fill="#2B3D63"/>
<path d="M113.25 362.62H114.72V344.37H113.25V362.62Z" fill="#2B3D63"/>
<path d="M112.69 345.09H115.24V342.53H112.69V345.09Z" fill="#2B3D63"/>
<path opacity="0.2" d="M112.69 345.09H115.24V342.53H112.69V345.09Z" fill="white"/>
<path d="M112.68 342.54H110.68V345.1H112.68V342.54Z" fill="#2B3D63"/>
<path opacity="0.1" d="M80.7 342.54H78.7V345.1H80.7V342.54Z" fill="black"/>
<path opacity="0.1" d="M112.68 342.54H110.68V345.1H112.68V342.54Z" fill="black"/>
<path d="M78.0798 202.95H76.7898V208.59H78.0798V202.95Z" fill="#263238"/>
<path d="M86.82 200.6C78.82 201.6 66.72 204.28 57.23 209.27V211.16C66.4177 206.221 76.4971 203.162 86.88 202.16L86.82 200.6Z" fill="#2B3D63"/>
<path d="M100.71 203.41C100.197 202.967 99.6204 202.603 98.9999 202.33C97.6299 201.74 89.3399 202.98 86.4999 203.43V202.22L86.4299 200.65C88.3599 200.45 90.0899 200.31 91.5499 200.22C93.9399 200.09 95.7099 200.01 97.0199 199.97C97.4893 199.949 97.9582 200.021 98.3992 200.183C98.8402 200.345 99.2444 200.594 99.5881 200.914C99.9318 201.235 100.208 201.62 100.401 202.049C100.593 202.478 100.698 202.94 100.71 203.41Z" fill="#2B3D63"/>
<path d="M57.23 222.57C56.9648 222.57 56.7104 222.465 56.5229 222.277C56.3353 222.09 56.23 221.835 56.23 221.57C56.23 221.06 56.23 220 61.55 215.19C62.2985 214.5 63.0937 213.861 63.93 213.28C68.823 210.156 74.3128 208.086 80.05 207.2C80.3152 207.166 80.5832 207.238 80.7952 207.401C81.0071 207.564 81.1455 207.805 81.18 208.07C81.2145 208.335 81.1422 208.603 80.979 208.815C80.8159 209.027 80.5752 209.166 80.31 209.2C80.23 209.2 71.72 210.4 65.06 214.95C64.2959 215.481 63.5708 216.066 62.89 216.7C59.43 219.83 58.33 221.3 58.22 221.7C58.1885 221.94 58.0707 222.161 57.8886 222.321C57.7065 222.481 57.4724 222.57 57.23 222.57Z" fill="#263238"/>
<path d="M55.8999 209H57.8999C57.9635 209 58.0246 209.025 58.0696 209.07C58.1146 209.115 58.1399 209.176 58.1399 209.24V362.71H55.6399V209.22C55.6424 209.188 55.6512 209.158 55.6656 209.129C55.6801 209.101 55.6999 209.076 55.7241 209.056C55.7483 209.035 55.7762 209.02 55.8064 209.01C55.8366 209.001 55.8684 208.997 55.8999 209Z" fill="#263238"/>
<path d="M100.72 203.52V203.6L89.1098 204.69L86.5298 203.6V203.43C89.3698 202.98 97.6598 201.74 99.0298 202.33C99.6397 202.606 100.206 202.969 100.71 203.41C100.719 203.446 100.722 203.483 100.72 203.52Z" fill="#2B3D63"/>
<path opacity="0.6" d="M100.72 203.52V203.6L89.1098 204.69L86.5298 203.6V203.43C89.3698 202.98 97.6598 201.74 99.0298 202.33C99.6397 202.606 100.206 202.969 100.71 203.41C100.719 203.446 100.722 203.483 100.72 203.52Z" fill="white"/>
<path d="M396.94 274.78H399.53C399.612 274.78 399.691 274.813 399.749 274.871C399.807 274.929 399.84 275.008 399.84 275.09V370.48H396.63V275.09C396.63 275.008 396.663 274.929 396.721 274.871C396.779 274.813 396.858 274.78 396.94 274.78Z" fill="#263238"/>
<path d="M413.5 277.37H382.85C380.895 277.37 379.31 278.955 379.31 280.91V286.62C379.31 288.575 380.895 290.16 382.85 290.16H413.5C415.455 290.16 417.04 288.575 417.04 286.62V280.91C417.04 278.955 415.455 277.37 413.5 277.37Z" fill="#2B3D63"/>
<path opacity="0.9" d="M413.5 277.37H382.85C380.895 277.37 379.31 278.955 379.31 280.91V286.62C379.31 288.575 380.895 290.16 382.85 290.16H413.5C415.455 290.16 417.04 288.575 417.04 286.62V280.91C417.04 278.955 415.455 277.37 413.5 277.37Z" fill="white"/>
<path d="M412.54 278.32H383.99C382.035 278.32 380.45 279.905 380.45 281.86V285.5C380.45 287.455 382.035 289.04 383.99 289.04H412.54C414.495 289.04 416.08 287.455 416.08 285.5V281.86C416.08 279.905 414.495 278.32 412.54 278.32Z" fill="#2B3D63"/>
<path d="M408.3 284.84L408.48 284.45C408.741 284.642 409.056 284.747 409.38 284.75C409.8 284.75 409.98 284.59 409.98 284.39C409.98 283.81 408.36 284.19 408.36 283.18C408.36 282.74 408.71 282.37 409.46 282.37C409.78 282.362 410.095 282.446 410.37 282.61L410.21 283C409.981 282.869 409.723 282.796 409.46 282.79C409.04 282.79 408.87 282.95 408.87 283.16C408.87 283.73 410.48 283.36 410.48 284.36C410.48 284.79 410.13 285.17 409.38 285.17C408.993 285.183 408.613 285.067 408.3 284.84Z" fill="white"/>
<path d="M411.5 282.83H410.6V282.4H412.91V282.83H412V285.13H411.49L411.5 282.83Z" fill="white"/>
<path d="M458.53 361.71H38.3701V372.27H458.53V361.71Z" fill="#2B3D63"/>
<g opacity="0.7">
<path d="M458.53 361.71H38.3701V372.27H458.53V361.71Z" fill="white"/>
</g>
<path d="M61.03 361.71H60.03V373.02H61.03V361.71Z" fill="white"/>
<path d="M155.01 361.71H154.01V373.02H155.01V361.71Z" fill="white"/>
<path d="M248.99 361.71H247.99V373.02H248.99V361.71Z" fill="white"/>
<path d="M342.97 361.71H341.97V373.02H342.97V361.71Z" fill="white"/>
<path d="M436.95 361.71H435.95V373.02H436.95V361.71Z" fill="white"/>
<path d="M458.53 376.41H38.3701V381.31H458.53V376.41Z" fill="#2B3D63"/>
<path opacity="0.9" d="M458.53 376.41H38.3701V381.31H458.53V376.41Z" fill="white"/>
<path d="M201.6 413.59H201.32C199.32 415.26 196 416.34 192.93 416.82C189.4 417.38 185.93 417.36 182.42 417.89C180.31 418.181 178.25 418.763 176.3 419.62C175.847 419.976 175.422 420.367 175.03 420.79C174.32 421.56 174.2 422.38 175.78 422.84C180.507 424.265 185.567 424.136 190.215 422.471C194.863 420.806 198.854 417.693 201.6 413.59Z" fill="#263238"/>
<path d="M177.36 422.11L172.05 423.91C170.62 424.12 170.5 423.28 171.49 422.91C173.37 422.84 177 421.55 177.36 422.11Z" fill="#263238"/>
<g opacity="0.8">
<path d="M201.6 413.59H201.32C199.32 415.26 196 416.34 192.93 416.82C189.4 417.38 185.93 417.36 182.42 417.89C180.31 418.181 178.25 418.763 176.3 419.62C175.847 419.976 175.422 420.367 175.03 420.79C174.32 421.56 174.2 422.38 175.78 422.84C180.507 424.265 185.567 424.136 190.215 422.471C194.863 420.806 198.854 417.693 201.6 413.59Z" fill="white"/>
<path d="M177.36 422.11L172.05 423.91C170.62 424.12 170.5 423.28 171.49 422.91C173.37 422.84 177 421.55 177.36 422.11Z" fill="white"/>
</g>
<path d="M199.64 409.53C199.64 409.75 199.52 409.99 199.43 410.26C199.34 410.53 199.34 410.54 199.29 410.68C199.19 410.98 199.07 411.29 198.94 411.63L198.71 412.16C198.62 412.38 198.53 412.59 198.42 412.81C198.31 413.03 198.21 413.26 198.09 413.49C197.97 413.72 197.86 413.95 197.73 414.19C197.6 414.43 197.49 414.63 197.36 414.85C197.23 415.07 197.06 415.37 196.89 415.63L196.42 416.36C196.25 416.61 196.08 416.85 195.9 417.09C195.72 417.33 195.54 417.57 195.35 417.81C195.16 418.05 194.96 418.3 194.75 418.53C194.54 418.76 194.35 418.98 194.14 419.2C193.93 419.42 193.7 419.65 193.47 419.86C193.257 419.697 193.021 419.566 192.77 419.47C192.211 419.183 191.561 419.127 190.961 419.314C190.361 419.501 189.858 419.916 189.56 420.47C189.445 420.793 189.415 421.14 189.473 421.478C189.531 421.816 189.674 422.133 189.89 422.4C189.453 422.625 189.002 422.822 188.54 422.99L188.15 423.12L187.71 423.26C187.498 423.332 187.281 423.389 187.06 423.43C186.902 423.473 186.742 423.506 186.58 423.53C186.343 423.588 186.103 423.631 185.86 423.66L185.04 423.74C184.754 423.74 184.454 423.74 184.14 423.74C182.998 423.735 181.861 423.597 180.75 423.33C180.131 423.181 179.521 423.001 178.92 422.79C177.798 422.387 176.708 421.899 175.66 421.33C175.21 421.09 174.76 420.83 174.29 420.54C173.959 420.394 173.664 420.18 173.422 419.911C173.181 419.642 173 419.325 172.891 418.98C172.782 418.636 172.748 418.272 172.791 417.913C172.834 417.554 172.953 417.209 173.14 416.9C173.453 416.279 173.825 415.69 174.25 415.14C176.104 414.048 178.192 413.417 180.34 413.3C183.94 413.03 187.56 413.7 191.15 413.39C194.27 413.12 197.58 411.89 199.35 409.39L199.64 409.53Z" fill="#2B3D63"/>
<path d="M175.81 419.68L170.58 421.78C169.12 421.89 168.85 420.43 169.82 420C171.77 420.2 175.29 418.65 175.81 419.68Z" fill="#2B3D63"/>
<path opacity="0.2" d="M199.64 409.53C199.64 409.75 199.52 409.99 199.43 410.26C199.34 410.53 199.34 410.54 199.29 410.68C199.19 410.98 199.07 411.29 198.94 411.63L198.71 412.16C198.62 412.38 198.53 412.59 198.42 412.81C198.31 413.03 198.21 413.26 198.09 413.49C197.97 413.72 197.86 413.95 197.73 414.19C197.6 414.43 197.49 414.63 197.36 414.85C197.23 415.07 197.06 415.37 196.89 415.63L196.42 416.36C196.25 416.61 196.08 416.85 195.9 417.09C195.72 417.33 195.54 417.57 195.35 417.81C195.16 418.05 194.96 418.3 194.75 418.53C194.54 418.76 194.35 418.98 194.14 419.2C193.93 419.42 193.7 419.65 193.47 419.86C193.257 419.697 193.021 419.566 192.77 419.47C192.211 419.183 191.561 419.127 190.961 419.314C190.361 419.501 189.858 419.916 189.56 420.47C189.445 420.793 189.415 421.14 189.473 421.478C189.531 421.816 189.674 422.133 189.89 422.4C189.453 422.625 189.002 422.822 188.54 422.99L188.15 423.12L187.71 423.26C187.498 423.332 187.281 423.389 187.06 423.43C186.902 423.473 186.742 423.506 186.58 423.53C186.343 423.588 186.103 423.631 185.86 423.66L185.04 423.74C184.754 423.74 184.454 423.74 184.14 423.74C182.998 423.735 181.861 423.597 180.75 423.33C180.131 423.184 179.52 423.004 178.92 422.79C177.794 422.396 176.704 421.907 175.66 421.33C175.21 421.09 174.76 420.83 174.29 420.54C173.959 420.394 173.664 420.18 173.422 419.911C173.181 419.642 173 419.325 172.891 418.98C172.782 418.636 172.748 418.272 172.791 417.913C172.834 417.554 172.953 417.209 173.14 416.9C173.453 416.279 173.825 415.69 174.25 415.14C176.104 414.048 178.192 413.417 180.34 413.3C183.94 413.03 187.56 413.7 191.15 413.39C194.27 413.12 197.58 411.89 199.35 409.39L199.64 409.53Z" fill="white"/>
<path d="M300 413.81L300.16 413.74C301.976 414.416 303.932 414.626 305.85 414.35C308.11 414.12 310.23 413.54 312.48 413.28C313.826 413.114 315.189 413.135 316.53 413.34C316.876 413.484 317.21 413.655 317.53 413.85C318.09 414.21 318.3 414.7 317.41 415.23C314.741 416.895 311.606 417.657 308.47 417.401C305.334 417.145 302.364 415.886 300 413.81Z" fill="#263238"/>
<path d="M316.27 415.07L319.83 415.3C320.74 415.2 320.68 414.66 320.01 414.6C318.84 414.86 316.43 414.65 316.27 415.07Z" fill="#263238"/>
<g opacity="0.8">
<path d="M300 413.81L300.16 413.74C301.976 414.416 303.932 414.626 305.85 414.35C308.11 414.12 310.23 413.54 312.48 413.28C313.826 413.114 315.189 413.135 316.53 413.34C316.876 413.484 317.21 413.655 317.53 413.85C318.09 414.21 318.3 414.7 317.41 415.23C314.741 416.895 311.606 417.657 308.47 417.401C305.334 417.145 302.364 415.886 300 413.81Z" fill="white"/>
<path d="M316.27 415.07L319.83 415.3C320.74 415.2 320.68 414.66 320.01 414.6C318.84 414.86 316.43 414.65 316.27 415.07Z" fill="white"/>
</g>
<path d="M301 409.82L301.17 409.73C301.909 410.402 302.782 410.911 303.732 411.223C304.681 411.535 305.686 411.643 306.68 411.54C308.97 411.42 311.2 410.68 313.49 410.54C314.855 410.425 316.227 410.642 317.49 411.17C317.801 411.478 318.086 411.813 318.34 412.17C318.484 412.35 318.587 412.558 318.645 412.78C318.702 413.003 318.712 413.235 318.673 413.462C318.635 413.689 318.548 413.905 318.42 414.095C318.292 414.286 318.125 414.448 317.93 414.57C308.45 422.38 302.11 412.53 301 409.82Z" fill="#2B3D63"/>
<path d="M316.91 414.13L320.39 415C321.32 414.94 321.39 414 320.71 413.81C319.5 414.1 317.15 413.44 316.91 414.13Z" fill="#2B3D63"/>
<path opacity="0.2" d="M301 409.82L301.17 409.73C301.909 410.402 302.782 410.911 303.732 411.223C304.681 411.535 305.686 411.643 306.68 411.54C308.97 411.42 311.2 410.68 313.49 410.54C314.855 410.425 316.227 410.642 317.49 411.17C317.801 411.478 318.086 411.813 318.34 412.17C318.484 412.35 318.587 412.558 318.645 412.78C318.702 413.003 318.712 413.235 318.673 413.462C318.635 413.689 318.548 413.905 318.42 414.095C318.292 414.286 318.125 414.448 317.93 414.57C308.45 422.38 302.11 412.53 301 409.82Z" fill="white"/>
<path d="M240.91 411.61L240.75 411.54C238.925 412.154 236.974 412.295 235.08 411.95C232.84 411.64 230.76 410.95 228.52 410.66C227.196 410.456 225.851 410.429 224.52 410.58C224.176 410.713 223.842 410.87 223.52 411.05C222.95 411.39 222.72 411.86 223.59 412.43C226.183 414.168 229.267 415.027 232.385 414.879C235.504 414.732 238.493 413.586 240.91 411.61Z" fill="#263238"/>
<path d="M224.68 412.3L221.13 412.41C220.23 412.27 220.31 411.74 220.98 411.71C222.13 412 224.54 411.89 224.68 412.3Z" fill="#263238"/>
<g opacity="0.8">
<path d="M240.91 411.61L240.75 411.54C238.925 412.154 236.974 412.295 235.08 411.95C232.84 411.64 230.76 410.95 228.52 410.66C227.196 410.456 225.851 410.429 224.52 410.58C224.176 410.713 223.842 410.87 223.52 411.05C222.95 411.39 222.72 411.86 223.59 412.43C226.183 414.168 229.267 415.027 232.385 414.879C235.504 414.732 238.493 413.586 240.91 411.61Z" fill="white"/>
<path d="M224.68 412.3L221.13 412.41C220.23 412.27 220.31 411.74 220.98 411.71C222.13 412 224.54 411.89 224.68 412.3Z" fill="white"/>
</g>
<path d="M240.47 408.8C240.422 408.753 240.368 408.712 240.31 408.68C239.479 409.223 238.542 409.584 237.562 409.741C236.582 409.898 235.579 409.846 234.62 409.59C232.39 409.12 230.32 408.04 228.1 407.59C226.785 407.275 225.415 407.275 224.1 407.59C223.744 407.849 223.409 408.136 223.1 408.45C222.929 408.602 222.793 408.788 222.699 408.997C222.605 409.205 222.557 409.431 222.557 409.66C222.557 409.888 222.605 410.114 222.699 410.323C222.793 410.532 222.929 410.718 223.1 410.87C231.2 420 239 411.29 240.47 408.8Z" fill="#2B3D63"/>
<path d="M224.19 410.54L220.64 410.85C219.74 410.65 219.84 409.71 220.51 409.64C221.65 410.11 224.06 409.82 224.19 410.54Z" fill="#2B3D63"/>
<path opacity="0.2" d="M240.47 408.8C240.422 408.753 240.368 408.712 240.31 408.68C239.479 409.223 238.542 409.584 237.562 409.741C236.582 409.898 235.579 409.846 234.62 409.59C232.39 409.12 230.32 408.04 228.1 407.59C226.785 407.275 225.415 407.275 224.1 407.59C223.744 407.849 223.409 408.136 223.1 408.45C222.929 408.602 222.793 408.788 222.699 408.997C222.605 409.205 222.557 409.431 222.557 409.66C222.557 409.888 222.605 410.114 222.699 410.323C222.793 410.532 222.929 410.718 223.1 410.87C231.2 420 239 411.29 240.47 408.8Z" fill="white"/>
<path d="M354.1 421.16H354.23C355.572 420.474 357.063 420.131 358.57 420.16C360.34 420.16 362.04 420.37 363.81 420.35C364.865 420.35 365.915 420.205 366.93 419.92C367.177 419.776 367.411 419.612 367.63 419.43C368.03 419.1 368.15 418.71 367.41 418.37C365.186 417.347 362.691 417.065 360.295 417.568C357.898 418.07 355.726 419.329 354.1 421.16Z" fill="#263238"/>
<path d="M366.58 418.63L369.31 418.11C370.03 418.11 370.03 418.52 369.52 418.63C368.59 418.54 366.74 418.93 366.58 418.63Z" fill="#263238"/>
<g opacity="0.8">
<path d="M354.1 421.16H354.23C355.572 420.474 357.063 420.131 358.57 420.16C360.34 420.16 362.04 420.37 363.81 420.35C364.865 420.35 365.915 420.205 366.93 419.92C367.177 419.776 367.411 419.612 367.63 419.43C368.03 419.1 368.15 418.71 367.41 418.37C365.186 417.347 362.691 417.065 360.295 417.568C357.898 418.07 355.726 419.329 354.1 421.16Z" fill="white"/>
<path d="M366.58 418.63L369.31 418.11C370.03 418.11 370.03 418.52 369.52 418.63C368.59 418.54 366.74 418.93 366.58 418.63Z" fill="white"/>
</g>
<path d="M354.05 420.84L354.19 420.91C354.765 420.385 355.444 419.987 356.184 419.744C356.923 419.501 357.706 419.418 358.48 419.5C360.27 419.6 362 420.17 363.78 420.29C364.844 420.376 365.914 420.208 366.9 419.8C367.144 419.555 367.368 419.291 367.57 419.01C367.682 418.87 367.763 418.708 367.808 418.534C367.852 418.361 367.86 418.18 367.83 418.003C367.8 417.827 367.732 417.658 367.632 417.51C367.533 417.361 367.402 417.235 367.25 417.14C359.85 411.05 354.9 418.72 354.05 420.84Z" fill="#2B3D63"/>
<path d="M366.44 417.48L369.15 416.81C369.87 416.81 369.91 417.59 369.4 417.73C368.46 417.5 366.62 418 366.44 417.48Z" fill="#2B3D63"/>
<path opacity="0.2" d="M354.05 420.84L354.19 420.91C354.765 420.385 355.444 419.987 356.184 419.744C356.923 419.501 357.706 419.418 358.48 419.5C360.27 419.6 362 420.17 363.78 420.29C364.844 420.376 365.914 420.208 366.9 419.8C367.144 419.555 367.368 419.291 367.57 419.01C367.682 418.87 367.763 418.708 367.808 418.534C367.852 418.361 367.86 418.18 367.83 418.003C367.8 417.827 367.732 417.658 367.632 417.51C367.533 417.361 367.402 417.235 367.25 417.14C359.85 411.05 354.9 418.72 354.05 420.84Z" fill="white"/>
<path d="M148.05 416.79H147.86C146.27 415.559 144.396 414.747 142.41 414.43C140.1 413.96 137.82 413.89 135.5 413.43C134.113 413.183 132.767 412.745 131.5 412.13C131.211 411.88 130.94 411.609 130.69 411.32C130.25 410.79 130.19 410.25 131.24 409.99C134.401 409.17 137.741 409.389 140.768 410.613C143.795 411.838 146.348 414.003 148.05 416.79Z" fill="#263238"/>
<path d="M132.27 410.52L128.82 409.2C127.88 409.02 127.82 409.57 128.43 409.83C129.66 409.94 132 410.88 132.27 410.52Z" fill="#263238"/>
<g opacity="0.8">
<path d="M148.05 416.79H147.86C146.27 415.559 144.396 414.748 142.41 414.43C140.1 413.96 137.82 413.89 135.5 413.43C134.113 413.183 132.767 412.745 131.5 412.13C131.211 411.88 130.94 411.61 130.69 411.32C130.25 410.79 130.19 410.25 131.24 409.99C134.401 409.17 137.741 409.389 140.768 410.613C143.795 411.838 146.348 414.003 148.05 416.79Z" fill="white"/>
<path d="M132.27 410.52L128.82 409.2C127.88 409.02 127.82 409.57 128.43 409.83C129.66 409.94 132 410.88 132.27 410.52Z" fill="white"/>
</g>
<path d="M148.19 416.39L147.99 416.44C147.356 415.619 146.557 414.941 145.644 414.45C144.73 413.959 143.724 413.666 142.69 413.59C140.33 413.29 137.92 413.59 135.55 413.36C134.125 413.227 132.754 412.753 131.55 411.98C131.285 411.607 131.057 411.208 130.87 410.79C130.755 410.581 130.686 410.351 130.667 410.113C130.649 409.876 130.68 409.637 130.761 409.413C130.841 409.189 130.968 408.985 131.134 408.814C131.299 408.642 131.499 408.508 131.72 408.42C142.9 402.18 147.58 413.41 148.19 416.39Z" fill="#2B3D63"/>
<path d="M132.74 409.05L129.34 407.53C128.34 407.42 128.16 408.37 128.79 408.68C130.08 408.61 132.36 409.72 132.74 409.05Z" fill="#2B3D63"/>
<path opacity="0.2" d="M148.19 416.39L147.99 416.44C147.356 415.619 146.557 414.941 145.644 414.45C144.73 413.959 143.724 413.666 142.69 413.59C140.33 413.29 137.92 413.59 135.55 413.36C134.125 413.227 132.754 412.753 131.55 411.98C131.285 411.607 131.057 411.208 130.87 410.79C130.755 410.581 130.686 410.351 130.667 410.113C130.649 409.876 130.68 409.637 130.761 409.413C130.841 409.189 130.968 408.985 131.134 408.814C131.299 408.642 131.499 408.508 131.72 408.42C142.9 402.18 147.58 413.41 148.19 416.39Z" fill="white"/>
</g>
<defs>
<clipPath id="clip0_375_2380">
<rect width="500" height="500" fill="white"/>
</clipPath>
</defs>
</svg>
