<svg width="41" height="40" viewBox="0 0 41 40" fill="none" xmlns="http://www.w3.org/2000/svg">
<rect x="0.5" width="40" height="40" rx="8" fill="#EC732F" fill-opacity="0.2"/>
<path d="M29.25 18.75H28.3625L26.2227 15.0047C26.1133 14.8134 25.9554 14.6544 25.7648 14.5438C25.5742 14.4333 25.3578 14.375 25.1375 14.375H15.8625C15.6422 14.375 15.4258 14.4333 15.2352 14.5438C15.0446 14.6544 14.8867 14.8134 14.7773 15.0047L12.6375 18.75H11.75C11.5842 18.75 11.4253 18.8158 11.3081 18.9331C11.1908 19.0503 11.125 19.2092 11.125 19.375C11.125 19.5408 11.1908 19.6997 11.3081 19.8169C11.4253 19.9342 11.5842 20 11.75 20H12.375V26.25C12.375 26.5815 12.5067 26.8995 12.7411 27.1339C12.9755 27.3683 13.2935 27.5 13.625 27.5H15.5C15.8315 27.5 16.1495 27.3683 16.3839 27.1339C16.6183 26.8995 16.75 26.5815 16.75 26.25V25H24.25V26.25C24.25 26.5815 24.3817 26.8995 24.6161 27.1339C24.8505 27.3683 25.1685 27.5 25.5 27.5H27.375C27.7065 27.5 28.0245 27.3683 28.2589 27.1339C28.4933 26.8995 28.625 26.5815 28.625 26.25V20H29.25C29.4158 20 29.5747 19.9342 29.6919 19.8169C29.8092 19.6997 29.875 19.5408 29.875 19.375C29.875 19.2092 29.8092 19.0503 29.6919 18.9331C29.5747 18.8158 29.4158 18.75 29.25 18.75ZM15.8625 15.625H25.1375L26.9227 18.75H14.0773L15.8625 15.625ZM15.5 26.25H13.625V25H15.5V26.25ZM25.5 26.25V25H27.375V26.25H25.5ZM27.375 23.75H13.625V20H27.375V23.75ZM14.875 21.875C14.875 21.7092 14.9408 21.5503 15.0581 21.4331C15.1753 21.3158 15.3342 21.25 15.5 21.25H16.75C16.9158 21.25 17.0747 21.3158 17.1919 21.4331C17.3092 21.5503 17.375 21.7092 17.375 21.875C17.375 22.0408 17.3092 22.1997 17.1919 22.3169C17.0747 22.4342 16.9158 22.5 16.75 22.5H15.5C15.3342 22.5 15.1753 22.4342 15.0581 22.3169C14.9408 22.1997 14.875 22.0408 14.875 21.875ZM23.625 21.875C23.625 21.7092 23.6908 21.5503 23.8081 21.4331C23.9253 21.3158 24.0842 21.25 24.25 21.25H25.5C25.6658 21.25 25.8247 21.3158 25.9419 21.4331C26.0592 21.5503 26.125 21.7092 26.125 21.875C26.125 22.0408 26.0592 22.1997 25.9419 22.3169C25.8247 22.4342 25.6658 22.5 25.5 22.5H24.25C24.0842 22.5 23.9253 22.4342 23.8081 22.3169C23.6908 22.1997 23.625 22.0408 23.625 21.875ZM18 12.5C18 12.3342 18.0658 12.1753 18.1831 12.0581C18.3003 11.9408 18.4592 11.875 18.625 11.875H22.375C22.5408 11.875 22.6997 11.9408 22.8169 12.0581C22.9342 12.1753 23 12.3342 23 12.5C23 12.6658 22.9342 12.8247 22.8169 12.9419C22.6997 13.0592 22.5408 13.125 22.375 13.125H18.625C18.4592 13.125 18.3003 13.0592 18.1831 12.9419C18.0658 12.8247 18 12.6658 18 12.5Z" fill="#EC732F"/>
</svg>
