<svg width="708" height="578" viewBox="0 0 708 578" fill="none" xmlns="http://www.w3.org/2000/svg">
<line x1="59.5" y1="2.46463e-08" x2="59.5" y2="577.959" stroke="#B2C0DE"/>
<line x1="118.5" y1="2.46463e-08" x2="118.5" y2="577.959" stroke="#B2C0DE"/>
<line x1="177.5" y1="2.46463e-08" x2="177.5" y2="577.959" stroke="#B2C0DE"/>
<line x1="236.5" y1="2.46463e-08" x2="236.5" y2="577.959" stroke="#B2C0DE"/>
<line x1="295.5" y1="2.46463e-08" x2="295.5" y2="577.959" stroke="#B2C0DE"/>
<line x1="354.5" y1="2.46463e-08" x2="354.5" y2="577.959" stroke="#B2C0DE"/>
<line x1="413.5" y1="2.52707e-08" x2="413.5" y2="577.959" stroke="#B2C0DE"/>
<line x1="472.5" y1="2.52707e-08" x2="472.5" y2="577.959" stroke="#B2C0DE"/>
<line x1="531.5" y1="2.52707e-08" x2="531.5" y2="577.959" stroke="#B2C0DE"/>
<line x1="590.5" y1="2.52707e-08" x2="590.5" y2="577.959" stroke="#B2C0DE"/>
<line x1="649.5" y1="2.52707e-08" x2="649.5" y2="577.959" stroke="#B2C0DE"/>
<line x1="708" y1="48.6008" x2="-5.4903e-08" y2="48.6008" stroke="#B2C0DE"/>
<line x1="708" y1="96.7017" x2="-5.4903e-08" y2="96.7016" stroke="#B2C0DE"/>
<line x1="708" y1="144.802" x2="-5.4903e-08" y2="144.802" stroke="#B2C0DE"/>
<line x1="708" y1="192.903" x2="-5.4903e-08" y2="192.903" stroke="#B2C0DE"/>
<line x1="708" y1="241.003" x2="-5.4903e-08" y2="241.003" stroke="#B2C0DE"/>
<line x1="708" y1="289.104" x2="-5.4903e-08" y2="289.104" stroke="#B2C0DE"/>
<line x1="708" y1="337.205" x2="-5.4903e-08" y2="337.205" stroke="#B2C0DE"/>
<line x1="708" y1="385.305" x2="-5.4903e-08" y2="385.305" stroke="#B2C0DE"/>
<line x1="708" y1="433.406" x2="-5.4903e-08" y2="433.406" stroke="#B2C0DE"/>
<line x1="708" y1="481.507" x2="-5.4903e-08" y2="481.507" stroke="#B2C0DE"/>
<line x1="708" y1="529.607" x2="-5.4903e-08" y2="529.607" stroke="#B2C0DE"/>
</svg>
